<svg width="32" height="32" viewBox="0 0 32 32" fill="none" xmlns="http://www.w3.org/2000/svg">
	<g clip-path="url(#clip0)">
		<path d="M11.2823 0H0C0 0 0 7.62544 0 8.587C0 20.327 7.73007 26.9909 12.5334 30.0098V8.7659H8.78011V21.8029C7.99817 21.065 3.77567 16.615 3.77567 8.27393V3.10832H13.8069L11.2823 0Z" fill="#FFF"/>
		<path d="M21.3136 0H32.5959C32.5959 0 32.5959 7.62544 32.5959 8.587C32.5959 20.327 24.8658 26.9909 20.0625 30.0098V11.2928H23.8158V21.8253C24.5977 21.0874 28.8202 16.6373 28.8202 8.2963V3.13068H18.8113L21.3136 0Z" fill="#FFF"/>
		<path d="M16.3091 32.0014C16.3091 32.0014 17.0464 31.7107 18.1858 31.107V6.28516H14.4101V31.1293C15.5718 31.7107 16.3091 32.0014 16.3091 32.0014Z" fill="#FFF"/>
	</g>
	<defs>
		<clipPath id="clip0">
			<rect width="32" height="32" fill="white"/>
		</clipPath>
	</defs>
</svg>
